<svg width="179" height="52" viewBox="30 0 149 52" fill="none" xmlns="http://www.w3.org/2000/svg">
<g filter="url(#filter0_d_13956_1167)">
<path d="M21.2852 20.3125C21.6133 20.3125 21.8945 20.4238 22.1289 20.6465C22.3633 20.8574 22.4863 21.127 22.498 21.4551V25.6914C22.4863 26.1719 22.5156 26.6172 22.5859 27.0273C22.668 27.4258 22.8555 27.7832 23.1484 28.0996C23.4414 28.416 23.8105 28.5859 24.2559 28.6094H29.8809C30.209 28.6211 30.4785 28.7441 30.6895 28.9785C30.9121 29.2129 31.0234 29.4941 31.0234 29.8223C31.0117 30.1387 30.8945 30.4082 30.6719 30.6309C30.4609 30.8418 30.1973 30.9531 29.8809 30.9648H23.6582C22.8379 30.918 22.1582 30.6426 21.6191 30.1387C21.0918 29.623 20.7109 28.9961 20.4766 28.2578C20.2539 27.5195 20.1367 26.7344 20.125 25.9023V21.4551C20.1367 21.1387 20.2539 20.875 20.4766 20.6641C20.6992 20.4414 20.9688 20.3242 21.2852 20.3125ZM41.4395 30.0332V25.7969C41.4395 25.5039 41.2872 25.3516 40.9825 25.3398H34.8302C34.6075 25.3516 34.4141 25.4512 34.2501 25.6387C34.086 25.8145 33.963 26.0254 33.8809 26.2715C33.8106 26.5059 33.7755 26.7461 33.7755 26.9922C33.7755 27.2266 33.8106 27.4668 33.8809 27.7129C33.963 27.9473 34.086 28.1582 34.2501 28.3457C34.4141 28.5215 34.6075 28.6094 34.8302 28.6094H39.3302C39.6583 28.6094 39.9337 28.7266 40.1563 28.9609C40.3907 29.1836 40.5079 29.459 40.5079 29.7871C40.5079 30.1152 40.3907 30.3906 40.1563 30.6133C39.9337 30.8477 39.6583 30.9648 39.3302 30.9648H34.9005C34.0802 30.9531 33.4005 30.7246 32.8614 30.2793C32.3341 29.8223 31.9532 29.3125 31.7188 28.75C31.4962 28.1758 31.3848 27.584 31.3848 26.9746C31.3848 26.3887 31.502 25.8145 31.7364 25.252C31.9708 24.6777 32.3516 24.168 32.879 23.7227C33.4063 23.2656 34.1856 23.0195 35.2169 22.9844H42.5997C42.9278 22.9844 43.2091 23.0957 43.4434 23.3184C43.6778 23.5293 43.8009 23.7988 43.8126 24.127V30.0332C43.8126 30.3613 43.6895 30.6367 43.4434 30.8594C43.2091 31.0703 42.9278 31.1758 42.5997 31.1758C41.8966 31.1172 41.5098 30.7363 41.4395 30.0332ZM50.6076 31.2637C49.9982 31.2637 49.3947 31.1934 48.797 31.0527C48.2111 30.9121 47.6486 30.707 47.1095 30.4375C46.5705 30.1562 46.0959 29.7871 45.6857 29.3301C45.2755 28.873 45.0529 28.3281 45.0177 27.6953V26.957V23.9512C45.0177 23.623 45.1349 23.3535 45.3693 23.1426C45.6154 22.9199 45.9025 22.8086 46.2306 22.8086C46.9338 22.8672 47.3146 23.248 47.3732 23.9512V24.7246V27.1504C47.3966 27.5137 47.5314 27.8184 47.7775 28.0645C48.0353 28.2988 48.3166 28.4863 48.6213 28.627C48.9377 28.7676 49.2599 28.873 49.588 28.9434C49.9279 29.0137 50.2677 29.0488 50.6076 29.0488C50.9474 29.0488 51.2814 29.0137 51.6095 28.9434C51.9494 28.873 52.2716 28.7676 52.5763 28.627C52.8927 28.4863 53.174 28.2988 53.4201 28.0645C53.6779 27.8184 53.8185 27.5137 53.842 27.1504V24.7246V23.9512C53.842 23.623 53.9591 23.3535 54.1935 23.1426C54.4396 22.9199 54.7267 22.8086 55.0548 22.8086C55.758 22.8672 56.1447 23.248 56.215 23.9512V26.957V27.6953C56.1798 28.3281 55.9513 28.873 55.5295 29.3301C55.1193 29.7871 54.6447 30.1562 54.1056 30.4375C53.5666 30.707 52.9982 30.9121 52.4005 31.0527C51.8146 31.1934 51.217 31.2637 50.6076 31.2637ZM62.9924 22.7207C63.6018 22.7207 64.1995 22.791 64.7854 22.9316C65.383 23.0723 65.9514 23.2832 66.4905 23.5645C67.0295 23.834 67.5041 24.1973 67.9143 24.6543C68.3362 25.1113 68.5647 25.6562 68.5998 26.2891V27.0273V30.0332C68.5295 30.7363 68.1428 31.1172 67.4397 31.1758C67.1116 31.1758 66.8245 31.0703 66.5784 30.8594C66.344 30.6367 66.2268 30.3613 66.2268 30.0332V29.2598V26.834C66.2034 26.4707 66.0627 26.1719 65.8049 25.9375C65.5588 25.6914 65.2776 25.498 64.9612 25.3574C64.6565 25.2168 64.3342 25.1113 63.9944 25.041C63.6662 24.9707 63.3323 24.9355 62.9924 24.9355C62.6526 24.9355 62.3127 24.9707 61.9729 25.041C61.6448 25.1113 61.3225 25.2168 61.0061 25.3574C60.7014 25.498 60.4202 25.6914 60.1623 25.9375C59.9162 26.1719 59.7815 26.4707 59.758 26.834V29.2598V30.0332C59.6995 30.7363 59.3186 31.1172 58.6155 31.1758C58.2873 31.1758 58.0002 31.0703 57.7541 30.8594C57.5198 30.6367 57.4026 30.3613 57.4026 30.0332V27.0273V26.2891C57.4377 25.6562 57.6604 25.1113 58.0705 24.6543C58.4807 24.1973 58.9553 23.834 59.4944 23.5645C60.0334 23.2832 60.5959 23.0723 61.1819 22.9316C61.7795 22.791 62.383 22.7207 62.9924 22.7207ZM73.3206 30.9648C72.2894 30.9297 71.5101 30.6895 70.9827 30.2441C70.4554 29.7871 70.0745 29.2773 69.8402 28.7148C69.6058 28.1406 69.4886 27.5605 69.4886 26.9746C69.4886 26.3652 69.5999 25.7793 69.8226 25.2168C70.057 24.6426 70.4378 24.1328 70.9652 23.6875C71.5042 23.2305 72.1839 22.9961 73.0042 22.9844H79.6839C80.012 22.9844 80.2874 23.1016 80.5101 23.3359C80.7445 23.5586 80.8616 23.834 80.8616 24.1621C80.8616 24.4902 80.7445 24.7715 80.5101 25.0059C80.2874 25.2285 80.012 25.3398 79.6839 25.3398H72.9339C72.7113 25.3398 72.5179 25.4336 72.3538 25.6211C72.1898 25.7969 72.0667 26.0078 71.9847 26.2539C71.9144 26.4883 71.8792 26.7227 71.8792 26.957C71.8792 27.2031 71.9144 27.4492 71.9847 27.6953C72.0667 27.9297 72.1898 28.1406 72.3538 28.3281C72.5179 28.5039 72.7113 28.5977 72.9339 28.6094H79.6839C80.012 28.6094 80.2874 28.7266 80.5101 28.9609C80.7445 29.1836 80.8616 29.459 80.8616 29.7871C80.8616 30.1152 80.7445 30.3906 80.5101 30.6133C80.2874 30.8477 80.012 30.9648 79.6839 30.9648H73.3206ZM82.8402 20.3125C83.1566 20.3242 83.4262 20.4414 83.6488 20.6641C83.8715 20.875 83.9887 21.1387 84.0004 21.4551V22.9844H89.4496C90.2699 22.9961 90.9437 23.2305 91.4711 23.6875C92.0102 24.1328 92.391 24.6367 92.6137 25.1992C92.848 25.7734 92.9652 26.3652 92.9652 26.9746H92.9828V30.0332C92.9828 30.3613 92.8598 30.6367 92.6137 30.8594C92.3793 31.0703 92.098 31.1758 91.7699 31.1758C91.0668 31.1172 90.6801 30.7363 90.6098 30.0332V26.957C90.6098 26.7344 90.5629 26.5 90.4691 26.2539C90.3871 26.0078 90.2641 25.7969 90.1 25.6211C89.9359 25.4336 89.7426 25.3398 89.5199 25.3398H84.0004V30.0684C83.9301 30.7715 83.5434 31.1523 82.8402 31.2109C82.5121 31.2109 82.225 31.1055 81.9789 30.8945C81.7445 30.6719 81.6273 30.3965 81.6273 30.0684V21.4551C81.6391 21.127 81.7621 20.8574 81.9965 20.6465C82.2309 20.4238 82.5121 20.3125 82.8402 20.3125ZM96.4907 30.0684C96.4204 30.7715 96.0337 31.1523 95.3305 31.2109C95.0024 31.2109 94.7153 31.1055 94.4692 30.8945C94.2348 30.6719 94.1177 30.3965 94.1177 30.0684V21.7363C94.1294 21.4082 94.2524 21.1387 94.4868 20.9277C94.7212 20.7051 95.0024 20.5938 95.3305 20.5938H96.1919H98.354H102.696C102.766 20.5938 102.836 20.5996 102.907 20.6113H103.012C103.832 20.6348 104.506 20.8223 105.034 21.1738C105.561 21.5254 105.942 21.9297 106.176 22.3867C106.411 22.832 106.528 23.2832 106.528 23.7402C106.528 24.209 106.411 24.6719 106.176 25.1289C105.954 25.5742 105.573 25.9727 105.034 26.3242C104.506 26.6758 103.832 26.8633 103.012 26.8867H99.9184C100.012 27.4727 100.206 27.9062 100.499 28.1875C100.78 28.4688 101.137 28.6094 101.571 28.6094H105.368C105.696 28.6211 105.965 28.7441 106.176 28.9785C106.399 29.2129 106.51 29.4941 106.51 29.8223C106.499 30.1387 106.381 30.4082 106.159 30.6309C105.948 30.8418 105.684 30.9531 105.368 30.9648H101.254C100.387 30.9766 99.602 30.6367 98.8989 29.9453C98.1958 29.2539 97.768 28.4336 97.6157 27.4844C97.4048 26.4297 97.2993 25.8379 97.2993 25.709C97.2993 25.3809 97.4106 25.1055 97.6333 24.8828C97.8677 24.6484 98.1489 24.5312 98.477 24.5312H103.118C103.34 24.5195 103.522 24.4727 103.663 24.3906C103.815 24.2969 103.926 24.1973 103.997 24.0918C104.067 23.9746 104.102 23.8574 104.102 23.7402C104.102 23.623 104.067 23.5117 103.997 23.4062C103.926 23.2891 103.815 23.1895 103.663 23.1074C103.522 23.0137 103.34 22.9609 103.118 22.9492H98.354H96.9477C96.643 22.9609 96.4907 23.1133 96.4907 23.4062V30.0684ZM117.172 30.0332V25.7969C117.172 25.5039 117.02 25.3516 116.715 25.3398H110.563C110.34 25.3516 110.147 25.4512 109.983 25.6387C109.819 25.8145 109.696 26.0254 109.614 26.2715C109.544 26.5059 109.508 26.7461 109.508 26.9922C109.508 27.2266 109.544 27.4668 109.614 27.7129C109.696 27.9473 109.819 28.1582 109.983 28.3457C110.147 28.5215 110.34 28.6094 110.563 28.6094H115.063C115.391 28.6094 115.667 28.7266 115.889 28.9609C116.124 29.1836 116.241 29.459 116.241 29.7871C116.241 30.1152 116.124 30.3906 115.889 30.6133C115.667 30.8477 115.391 30.9648 115.063 30.9648H110.633C109.813 30.9531 109.133 30.7246 108.594 30.2793C108.067 29.8223 107.686 29.3125 107.452 28.75C107.229 28.1758 107.118 27.584 107.118 26.9746C107.118 26.3887 107.235 25.8145 107.469 25.252C107.704 24.6777 108.085 24.168 108.612 23.7227C109.139 23.2656 109.919 23.0195 110.95 22.9844H118.333C118.661 22.9844 118.942 23.0957 119.176 23.3184C119.411 23.5293 119.534 23.7988 119.545 24.127V30.0332C119.545 30.3613 119.422 30.6367 119.176 30.8594C118.942 31.0703 118.661 31.1758 118.333 31.1758C117.629 31.1172 117.243 30.7363 117.172 30.0332ZM130.524 21.4551C130.594 20.752 130.981 20.3711 131.684 20.3125C132.012 20.3125 132.294 20.4238 132.528 20.6465C132.774 20.8574 132.897 21.127 132.897 21.4551V29.8223C132.885 30.1504 132.762 30.4258 132.528 30.6484C132.294 30.8594 132.012 30.9648 131.684 30.9648H124.301C123.27 30.9297 122.491 30.6895 121.964 30.2441C121.436 29.7871 121.055 29.2773 120.821 28.7148C120.587 28.1406 120.469 27.5605 120.469 26.9746C120.469 26.3652 120.581 25.7793 120.803 25.2168C121.038 24.6426 121.419 24.1328 121.946 23.6875C122.485 23.2305 123.165 22.9961 123.985 22.9844H128.415C128.743 22.9844 129.018 23.1016 129.241 23.3359C129.475 23.5586 129.592 23.834 129.592 24.1621C129.592 24.4902 129.475 24.7715 129.241 25.0059C129.018 25.2285 128.743 25.3398 128.415 25.3398H123.915C123.692 25.3398 123.499 25.4336 123.335 25.6211C123.171 25.7969 123.048 26.0078 122.965 26.2539C122.895 26.4883 122.86 26.7227 122.86 26.957C122.86 27.2031 122.895 27.4492 122.965 27.6953C123.048 27.9297 123.171 28.1406 123.335 28.3281C123.499 28.5039 123.692 28.5977 123.915 28.6094H130.067C130.372 28.5977 130.524 28.4453 130.524 28.1523V21.4551ZM143.964 30.0332V25.7969C143.964 25.5039 143.811 25.3516 143.507 25.3398H137.354C137.132 25.3516 136.938 25.4512 136.774 25.6387C136.61 25.8145 136.487 26.0254 136.405 26.2715C136.335 26.5059 136.3 26.7461 136.3 26.9922C136.3 27.2266 136.335 27.4668 136.405 27.7129C136.487 27.9473 136.61 28.1582 136.774 28.3457C136.938 28.5215 137.132 28.6094 137.354 28.6094H141.854C142.182 28.6094 142.458 28.7266 142.68 28.9609C142.915 29.1836 143.032 29.459 143.032 29.7871C143.032 30.1152 142.915 30.3906 142.68 30.6133C142.458 30.8477 142.182 30.9648 141.854 30.9648H137.425C136.604 30.9531 135.925 30.7246 135.385 30.2793C134.858 29.8223 134.477 29.3125 134.243 28.75C134.02 28.1758 133.909 27.584 133.909 26.9746C133.909 26.3887 134.026 25.8145 134.26 25.252C134.495 24.6777 134.876 24.168 135.403 23.7227C135.93 23.2656 136.71 23.0195 137.741 22.9844H145.124C145.452 22.9844 145.733 23.0957 145.967 23.3184C146.202 23.5293 146.325 23.7988 146.337 24.127V30.0332C146.337 30.3613 146.214 30.6367 145.967 30.8594C145.733 31.0703 145.452 31.1758 145.124 31.1758C144.421 31.1172 144.034 30.7363 143.964 30.0332ZM147.893 25.1992C148.116 24.6367 148.491 24.1328 149.018 23.6875C149.557 23.2305 150.237 22.9961 151.057 22.9844H157.667C157.995 22.9844 158.27 23.1016 158.493 23.3359C158.727 23.5586 158.845 23.834 158.845 24.1621C158.845 24.4902 158.727 24.7715 158.493 25.0059C158.27 25.2285 157.995 25.3398 157.667 25.3398H150.987C150.764 25.3398 150.571 25.4336 150.407 25.6211C150.243 25.7969 150.114 26.0078 150.02 26.2539C149.938 26.5 149.897 26.7344 149.897 26.957V30.0332C149.827 30.7363 149.44 31.1172 148.737 31.1758C148.409 31.1758 148.122 31.0703 147.876 30.8594C147.641 30.6367 147.524 30.3613 147.524 30.0332V26.9746H147.542C147.542 26.3652 147.659 25.7734 147.893 25.1992Z" fill="#00D0FF"/>
</g>
<defs>
<filter id="filter0_d_13956_1167" x="0.125" y="0.3125" width="178.719" height="50.9512" filterUnits="userSpaceOnUse" color-interpolation-filters="sRGB">
<feFlood flood-opacity="0" result="BackgroundImageFix"/>
<feColorMatrix in="SourceAlpha" type="matrix" values="0 0 0 0 0 0 0 0 0 0 0 0 0 0 0 0 0 0 127 0" result="hardAlpha"/>
<feOffset/>
<feGaussianBlur stdDeviation="10"/>
<feComposite in2="hardAlpha" operator="out"/>
<feColorMatrix type="matrix" values="0 0 0 0 0 0 0 0 0 0.815686 0 0 0 0 1 0 0 0 0.5 0"/>
<feBlend mode="normal" in2="BackgroundImageFix" result="effect1_dropShadow_13956_1167"/>
<feBlend mode="normal" in="SourceGraphic" in2="effect1_dropShadow_13956_1167" result="shape"/>
</filter>
</defs>
</svg>
